<mxfile host="app.diagrams.net" modified="2020-05-05T04:05:00.794Z" agent="5.0 (Macintosh; Intel Mac OS X 10_15_0) AppleWebKit/537.36 (KHTML, like Gecko) Chrome/81.0.4044.129 Safari/537.36" etag="gSbV2XLV-S7tuhW9yhZJ" version="13.0.7" type="github">
  <diagram id="64nNctItM0ln6YRnZ9_F" name="Page-1">
    <mxGraphModel dx="946" dy="541" grid="1" gridSize="10" guides="1" tooltips="1" connect="1" arrows="1" fold="1" page="1" pageScale="1" pageWidth="827" pageHeight="1169" math="0" shadow="0">
      <root>
        <mxCell id="0" />
        <mxCell id="1" parent="0" />
        <mxCell id="XUKlRepwEZ2EofCOlBNH-1" value="" style="ellipse;whiteSpace=wrap;html=1;aspect=fixed;strokeWidth=6;" parent="1" vertex="1">
          <mxGeometry x="200" y="100" width="370" height="370" as="geometry" />
        </mxCell>
        <mxCell id="bX7MsVRuQMjISr-9wdBp-1" value="0/ 2^32 - 1" style="text;html=1;strokeColor=none;fillColor=none;align=center;verticalAlign=middle;whiteSpace=wrap;rounded=0;strokeWidth=6;fontSize=16;" vertex="1" parent="1">
          <mxGeometry x="342.5" y="30" width="85" height="20" as="geometry" />
        </mxCell>
        <mxCell id="bX7MsVRuQMjISr-9wdBp-2" value="" style="endArrow=none;html=1;exitX=0.5;exitY=0;exitDx=0;exitDy=0;entryX=0.5;entryY=1;entryDx=0;entryDy=0;strokeWidth=8;" edge="1" parent="1" source="XUKlRepwEZ2EofCOlBNH-1" target="bX7MsVRuQMjISr-9wdBp-1">
          <mxGeometry width="50" height="50" relative="1" as="geometry">
            <mxPoint x="270" y="100" as="sourcePoint" />
            <mxPoint x="320" y="50" as="targetPoint" />
          </mxGeometry>
        </mxCell>
      </root>
    </mxGraphModel>
  </diagram>
</mxfile>
